# xmcd
#
# Track frame offsets: 
#        150
#        23035
#        45852
#        148328
#        182816
#        210728
#        225352
#        268337
#        320163
#        336909
#
# Disc length: 4675 seconds
#
# Revision: 0
# Processed by: cddbd v1.5.2PL0 Copyright (c) Steve Scherf et al.
# Submitted via: ExactAudioCopy v0.99pb5
#
DISCID=9312410a
DTITLE=Caravan  - The World Is Yours - An Anthology 1968-1976 - Disc 2
DYEAR=1900
DGENRE=
TTITLE0=Golf Girl
TTITLE1=In The Land Of Grey And Pink
TTITLE2=Nine Feet Underground
TTITLE3=Winter Wine
TTITLE4=I Don't Know Its Name
TTITLE5=Love To Love You
TTITLE6=Feelin', Reelin', Squealin'
TTITLE7=The Love In Your Eye
TTITLE8=The World Is Yours
TTITLE9=Aristocracy
EXTD=
EXTT0=
EXTT1=
EXTT2=
EXTT3=
EXTT4=
EXTT5=
EXTT6=
EXTT7=
EXTT8=
EXTT9=
PLAYORDER=
